<svg xmlns="http://www.w3.org/2000/svg" width="92.259" height="80.604" viewBox="0 0 92.259 80.604">
  <g id="Group_40495" data-name="Group 40495" transform="translate(-149.743 -158.825)">
    <path id="Path_2633" data-name="Path 2633" d="M166.373,230.169a38.255,38.255,0,0,1,4.295,1.568,7.588,7.588,0,0,1,2.5,2.062c1.214,1.531.826,3.065-.907,3.989a13.179,13.179,0,0,1-7.841,1.55,108.042,108.042,0,0,1-11.179-2.084c-2.33-.541-3.517-1.98-3.5-3.527.017-1.671,1.206-3.119,3.5-3.708,2.067-.531,4.221-.723,6.6-1.108a50.452,50.452,0,0,0,.562-5.147,129.868,129.868,0,0,1,1.848-17.186c.449-3.025.574-6.1.768-9.157a1.638,1.638,0,0,0-.606-1.3c-6.176-3.354-8.615-9.017-9.861-15.52-1.26-6.575-.038-12.948,1.348-19.31.471-2.161,1.686-2.824,4.041-2.287,2.539.579,5,1.491,7.546,2.054,4.109.909,8.268,1.593,12.381,2.486a55.207,55.207,0,0,1,6.194,1.772c2.082.715,2.665,1.7,2.561,3.839-.425,8.8-3.8,16.5-8.889,23.533a11.834,11.834,0,0,1-7.938,4.7,1.366,1.366,0,0,0-1.323,1.368,159.328,159.328,0,0,0-2.1,23.349C166.337,224.754,166.373,227.4,166.373,230.169Zm-12.616-57.232c.2,4.987.672,8.791,2.021,12.437a16.713,16.713,0,0,0,4.484,6.954c6.017,5.341,12.279,3.885,15.726-.539a39.588,39.588,0,0,0,8.771-22.81,1.614,1.614,0,0,0-1.233-1.856c-1.879-.571-3.74-1.232-5.653-1.657-5.177-1.149-10.382-2.167-15.563-3.3-1.649-.359-3.253-.921-4.886-1.359-1.117-.3-1.809.027-1.995,1.3C154.844,166.085,154.205,170.053,153.757,172.937Zm11.161,24.314c-.11.622-.224,1.106-.277,1.6-.546,5-1.144,9.994-1.6,15-.613,6.651-1.1,13.314-1.7,19.967-.046.512-.539.985-.824,1.476a5.772,5.772,0,0,1-.97-1.553,17.031,17.031,0,0,1,.057-1.9c-.04-.34-.479-.942-.648-.912a38.926,38.926,0,0,0-6.369,1.354c-1.5.534-1.381,1.953.072,2.747a7.673,7.673,0,0,0,2.036.779q3.555.765,7.137,1.4a15.535,15.535,0,0,0,8.9-.765c1.4-.582,1.494-1.092.446-2.178-1.465-1.516-3.469-1.632-5.464-2.221-.112.909-.175,1.674-.308,2.428s.15,1.961-1.081,1.827c-1.137-.125-.789-1.243-.765-2.03.014-.456.115-.908.156-1.363.238-2.6.638-5.189.674-7.787a175.48,175.48,0,0,1,2.2-25.551c.1-.619.215-1.236.328-1.88a5.817,5.817,0,0,0-.612-.2C165.911,197.406,165.506,197.348,164.918,197.251Z" fill="#333"/>
    <path id="Path_2634" data-name="Path 2634" d="M233.311,228.82c1.57.092,3.164.153,4.75.295a5.266,5.266,0,0,1,1.573.47c2.892,1.254,3.156,3.513.678,5.432-3.222,2.495-6.988,3.3-10.927,3.571-2.009.14-4.019.326-6.03.342-2.307.018-3.858-.9-4.276-2.317-.466-1.576.33-3.364,2.348-4.52,1.774-1.016,3.709-1.75,5.742-2.686-.239-1.454-.493-3.074-.773-4.688-.945-5.449-1.878-10.9-2.86-16.342q-.828-4.589-1.829-9.145a1.608,1.608,0,0,0-.982-1.025c-5.818-1.3-9.508-5.136-12.358-10.1-3.565-6.2-4.357-13.047-4.774-19.976-.128-2.129.79-3.07,3.055-3.189,2.741-.144,5.5.032,8.237-.138,4.384-.272,8.755-.753,13.137-1.065a34.113,34.113,0,0,1,4.52.067c2.355.145,3.074.88,3.635,3.165,1.523,6.206,1.02,12.366-.38,18.5a49.731,49.731,0,0,1-1.685,5.5,10.932,10.932,0,0,1-5.808,6.3,1.759,1.759,0,0,0-1.122,2.213,161.916,161.916,0,0,0,4.163,21.544C232.04,223.631,232.666,226.256,233.311,228.82ZM213.384,166.8c-2.931,0-4.939.009-6.947,0-.972-.007-1.28.527-1.2,1.4.557,6.21,1.121,12.411,4.209,18.041,1.963,3.579,4.164,6.949,7.959,8.819,3.945,1.945,7.879,2.585,11.738-.4,2.521-1.951,3.61-4.636,4.375-7.551,1.68-6.4,2.487-12.828.969-19.4-.322-1.4-.868-2.136-2.3-2.127-1.783.012-3.575-.082-5.348.054C222.045,165.993,217.264,166.458,213.384,166.8Zm10.032,31.771c.1.821.161,1.5.276,2.169.806,4.682,1.565,9.374,2.454,14.04,1.2,6.289,2.515,12.556,3.727,18.843.088.456-.256,1-.4,1.5-.436-.368-1.011-.657-1.273-1.123a15.9,15.9,0,0,1-.5-1.841c-.119-.3-.607-.739-.778-.68-2.113.73-4.32,1.347-5.835,3.151a1.321,1.321,0,0,0,.769,2.3,6.769,6.769,0,0,0,2.164.249c2.827-.214,5.661-.412,8.467-.8a13.728,13.728,0,0,0,6.864-2.927c1.071-.869,1.031-1.326-.142-2.05-1.807-1.117-3.748-.653-5.777-.687.175,1.055.308,1.861.444,2.666.112.669.408,1.546-.574,1.622-.371.029-1.051-.779-1.173-1.3-.371-1.6-.436-3.27-.806-4.869-.9-3.875-2.062-7.694-2.822-11.593-1.11-5.7-1.961-11.442-2.916-17.168-.087-.522-.124-1.052-.192-1.643Z" fill="#333"/>
    <path id="Path_2635" data-name="Path 2635" d="M153.757,172.937c.448-2.884,1.088-6.853,1.671-10.83.186-1.27.878-1.6,1.995-1.3,1.633.438,3.237,1,4.886,1.359,5.181,1.129,10.387,2.147,15.563,3.3,1.913.425,3.774,1.086,5.653,1.657a1.614,1.614,0,0,1,1.233,1.856,39.589,39.589,0,0,1-8.771,22.81c-3.447,4.424-9.709,5.881-15.726.539a16.723,16.723,0,0,1-4.484-6.954C154.429,181.728,153.959,177.924,153.757,172.937Zm3.731.479a23.18,23.18,0,0,0,2.715,12.268,12.306,12.306,0,0,0,2.579,3.326c3.228,3.027,6.981,3.091,10.4.307a15.4,15.4,0,0,0,4.583-6.238,40.071,40.071,0,0,0,3.186-10.876c.14-1.332-.2-1.74-1.32-1.961-2.642-.522-5.281-1.062-7.921-1.6q-6.241-1.275-12.481-2.556c-.889-.182-1.722-.227-1.734,1.028C157.474,169.214,157.488,171.315,157.488,173.416Z" fill="#f9f9f8"/>
    <path id="Path_2636" data-name="Path 2636" d="M164.918,197.251c.588.1.992.154,1.393.232a5.817,5.817,0,0,1,.612.2c-.113.644-.228,1.261-.328,1.88a175.354,175.354,0,0,0-2.2,25.551c-.036,2.6-.436,5.192-.674,7.787-.042.455-.142.908-.156,1.363-.024.787-.372,1.906.765,2.03,1.23.135.949-1.08,1.081-1.827s.2-1.519.308-2.428c1.994.589,4,.706,5.464,2.221,1.049,1.085.952,1.6-.446,2.178a15.535,15.535,0,0,1-8.9.765q-3.579-.644-7.137-1.4a7.686,7.686,0,0,1-2.036-.779c-1.453-.794-1.572-2.213-.072-2.747a38.95,38.95,0,0,1,6.369-1.354c.169-.03.608.572.648.912a17.034,17.034,0,0,0-.057,1.9,5.8,5.8,0,0,0,.97,1.553c.285-.491.778-.964.824-1.476.6-6.653,1.086-13.316,1.7-19.967.461-5.007,1.059-10,1.6-15C164.694,198.357,164.808,197.873,164.918,197.251Z" fill="#f2f2f2"/>
    <path id="Path_2637" data-name="Path 2637" d="M213.384,166.8c3.88-.346,8.661-.812,13.45-1.18,1.774-.136,3.565-.043,5.348-.054,1.435-.009,1.981.732,2.3,2.127,1.518,6.578.711,13.006-.969,19.4-.765,2.915-1.854,5.6-4.375,7.551-3.859,2.986-7.793,2.346-11.738.4-3.794-1.87-6-5.239-7.959-8.819-3.088-5.63-3.652-11.831-4.209-18.041-.078-.868.23-1.4,1.2-1.4C208.445,166.814,210.453,166.8,213.384,166.8Zm18.938,9.8a49.716,49.716,0,0,1-.731-5.491c-.023-1.39-.632-1.608-1.781-1.514q-10.173.832-20.351,1.619c-1.034.081-1.187.66-.975,1.515.34,1.373.7,2.742,1.005,4.123A25.141,25.141,0,0,0,216.8,189.95c3.642,3.456,8.923,3.291,11.725-.281a9.255,9.255,0,0,0,1.869-3.309C231.215,182.921,231.781,179.42,232.322,176.6Z" fill="#f9f9f8"/>
    <path id="Path_2638" data-name="Path 2638" d="M223.416,198.576l1.981-.145c.068.59.1,1.121.192,1.643.955,5.726,1.806,11.472,2.916,17.168.76,3.9,1.925,7.718,2.822,11.593.37,1.6.435,3.27.806,4.869.121.524.8,1.332,1.173,1.3.982-.076.687-.953.574-1.622-.135-.8-.268-1.611-.444-2.666,2.029.034,3.97-.429,5.777.687,1.173.725,1.213,1.181.142,2.05a13.728,13.728,0,0,1-6.864,2.927c-2.806.389-5.64.587-8.467.8a6.769,6.769,0,0,1-2.164-.249,1.321,1.321,0,0,1-.769-2.3c1.515-1.8,3.722-2.421,5.835-3.151.171-.059.659.382.778.68a15.951,15.951,0,0,0,.5,1.841c.262.466.836.756,1.273,1.123.143-.5.487-1.041.4-1.5-1.213-6.287-2.529-12.553-3.727-18.843-.889-4.667-1.648-9.358-2.454-14.04C223.577,200.077,223.519,199.4,223.416,198.576Z" fill="#f2f2f2"/>
    <path id="Path_2639" data-name="Path 2639" d="M157.488,173.416c0-2.1-.014-4.2.005-6.3.012-1.255.845-1.21,1.734-1.028q6.241,1.278,12.481,2.556c2.639.539,5.278,1.079,7.921,1.6,1.118.221,1.46.628,1.32,1.961a40.1,40.1,0,0,1-3.186,10.876,15.4,15.4,0,0,1-4.583,6.238c-3.416,2.785-7.169,2.721-10.4-.307a12.306,12.306,0,0,1-2.579-3.326A23.171,23.171,0,0,1,157.488,173.416Zm4.457-.055c0,.208,0,.417-.005.625.47.37.9.967,1.418,1.059.917.163,1.349-.637,1.245-1.385-.066-.475-.694-1.232-1.051-1.222C163.007,172.454,162.479,173.025,161.945,173.361Zm9.613,3.613c.612-.828,1.18-1.288,1.261-1.823.049-.318-.808-1.136-1.012-1.061a2.349,2.349,0,0,0-1.3,1.2C170.4,175.584,171.013,176.146,171.558,176.974Zm-4.881-4.058c.6-.771,1.183-1.2,1.223-1.677.031-.37-.615-.8-.961-1.2-.463.413-1.091.753-1.318,1.27C165.511,171.564,166.146,172.145,166.677,172.916Zm-.148,6.481.544.027c.31-.465.858-.93.857-1.394,0-.421-.6-.842-.935-1.262-.419.383-1.1.716-1.183,1.162C165.732,178.358,166.266,178.9,166.529,179.4Z" fill="#c09e65"/>
    <path id="Path_2640" data-name="Path 2640" d="M232.322,176.6c-.541,2.815-1.107,6.316-1.931,9.755a9.247,9.247,0,0,1-1.869,3.309c-2.8,3.572-8.084,3.737-11.725.281a25.158,25.158,0,0,1-7.309-13.093c-.306-1.381-.664-2.75-1.005-4.123-.212-.855-.059-1.435.975-1.515q10.178-.794,20.351-1.619c1.15-.094,1.759.124,1.781,1.514A49.991,49.991,0,0,0,232.322,176.6Zm-12.435.013-.616-.031c-.327.5-.95,1.024-.9,1.479.054.495.733.921,1.14,1.377.409-.416,1.1-.8,1.15-1.256C220.716,177.7,220.171,177.145,219.887,176.618Zm-1.02-1.953.575.029a5.005,5.005,0,0,0,.939-1.676c.039-.318-.874-1.114-1.057-1.031a2.349,2.349,0,0,0-1.266,1.28C217.961,173.637,218.572,174.192,218.867,174.665Zm-3.809-.445c-.562.781-1.181,1.273-1.114,1.642.082.454.781,1.16,1.131,1.114a1.824,1.824,0,0,0,1.223-1.159C216.377,175.5,215.682,174.985,215.058,174.22Z" fill="#c09e65"/>
    <path id="Path_2641" data-name="Path 2641" d="M161.945,173.361c.535-.335,1.063-.907,1.607-.923.357-.01.986.747,1.051,1.222.1.748-.329,1.548-1.245,1.385-.519-.092-.948-.689-1.418-1.059Q161.941,173.673,161.945,173.361Z" fill="#f2f2f2"/>
    <path id="Path_2642" data-name="Path 2642" d="M171.558,176.974c-.546-.828-1.162-1.39-1.053-1.681a2.346,2.346,0,0,1,1.3-1.2c.2-.075,1.061.743,1.012,1.061C172.738,175.686,172.17,176.146,171.558,176.974Z" fill="#f2f2f2"/>
    <path id="Path_2643" data-name="Path 2643" d="M166.677,172.916c-.531-.771-1.167-1.352-1.056-1.6.227-.516.855-.857,1.318-1.27.345.4.992.828.961,1.2C167.86,171.715,167.277,172.145,166.677,172.916Z" fill="#f9f9f8"/>
    <path id="Path_2644" data-name="Path 2644" d="M166.529,179.4c-.263-.494-.8-1.039-.716-1.467.085-.446.764-.78,1.183-1.162.335.421.934.841.935,1.262,0,.464-.548.929-.857,1.394Z" fill="#f9f9f8"/>
    <path id="Path_2645" data-name="Path 2645" d="M219.887,176.618c.283.526.829,1.082.773,1.57-.052.456-.741.84-1.15,1.256-.407-.456-1.086-.883-1.14-1.377-.05-.455.574-.983.9-1.479Z" fill="#f2f2f2"/>
    <path id="Path_2646" data-name="Path 2646" d="M218.867,174.665c-.295-.473-.906-1.028-.809-1.4a2.349,2.349,0,0,1,1.266-1.28c.183-.083,1.1.712,1.057,1.031a5,5,0,0,1-.939,1.676Z" fill="#f9f9f8"/>
    <path id="Path_2647" data-name="Path 2647" d="M215.058,174.22c.625.766,1.32,1.28,1.239,1.6a1.822,1.822,0,0,1-1.223,1.159c-.349.045-1.049-.66-1.131-1.114C213.877,175.493,214.5,175,215.058,174.22Z" fill="#f9f9f8"/>
  </g>
</svg>
