<svg xmlns="http://www.w3.org/2000/svg" width="129.391" height="131.117" viewBox="0 0 129.391 131.117">
  <g id="Group_40494" data-name="Group 40494" transform="translate(-299.551 -311.433)">
    <g id="Group_40485" data-name="Group 40485">
      <g id="Group_40482" data-name="Group 40482">
        <path id="Path_3086" data-name="Path 3086" d="M303.75,336.426l5.952.526,3.809-4.606,1.339,5.825,5.556,2.2-5.125,3.074-.374,5.964-4.506-3.925-5.788,1.488,2.34-5.5Z" fill="#d6a154"/>
        <path id="Path_3087" data-name="Path 3087" d="M315.719,351.348l-5.561-4.842-7.141,1.835,2.887-6.784-3.953-6.224,7.346.65,4.7-5.683,1.651,7.186L322.5,340.2l-6.323,3.791Zm-5.075-6.89,3.453,3.007.286-4.569,3.927-2.354-4.258-1.685-1.026-4.462-2.918,3.528-4.561-.4L308,341.386l-1.792,4.213Z" fill="#282f33"/>
      </g>
      <g id="Group_40483" data-name="Group 40483">
        <path id="Path_3088" data-name="Path 3088" d="M301.539,380.726l3.187-3.223-.849-4.453,4.05,2.035L311.9,372.9l-.684,4.481,3.3,3.1-4.473.735-1.93,4.1-2.081-4.027Z" fill="#d6a154"/>
        <path id="Path_3089" data-name="Path 3089" d="M308.156,387.425l-2.723-5.268-5.882-.743,4.168-4.217-1.109-5.826,5.3,2.663,5.2-2.856-.894,5.863,4.323,4.059-5.852.961Zm-4.628-7.386,3.111.394,1.438,2.785,1.336-2.837,3.094-.508-2.284-2.146.472-3.1-2.748,1.51-2.8-1.408.587,3.08Z" fill="#282f33"/>
      </g>
      <path id="Path_3090" data-name="Path 3090" d="M363.679,376.54c-10.579-10.658-27.578-23.758-41.7-29l.647-1.746c14.392,5.338,31.655,18.628,42.378,29.432Z" fill="#282f33"/>
      <path id="Path_3091" data-name="Path 3091" d="M317.173,375.992l-1.124-1.486c.156-.118,15.871-11.748,33.775-3.145l-.808,1.679C332.129,364.925,317.32,375.881,317.173,375.992Z" fill="#282f33"/>
      <path id="Path_3092" data-name="Path 3092" d="M301.136,367.39l-.618-1.757a65.94,65.94,0,0,1,22.96-3.492L323.445,364A63.97,63.97,0,0,0,301.136,367.39Z" fill="#d6a154"/>
      <path id="Path_3093" data-name="Path 3093" d="M316.124,358.283a37.1,37.1,0,0,1-11.029-1.754l.58-1.769a35.219,35.219,0,0,0,10.476,1.661Z" fill="#282f33"/>
      <path id="Path_3094" data-name="Path 3094" d="M326.333,392.528l-1.524-1.069c6.709-9.566,20.761-16.333,32.748-15.748l-.091,1.86C346.075,377.015,332.708,383.442,326.333,392.528Z" fill="#d6a154"/>
      <path id="Path_3095" data-name="Path 3095" d="M342.352,397.77l-1.8-.5c1.97-7.083,8.894-14.055,16.107-16.217l.535,1.784C350.547,384.833,344.163,391.252,342.352,397.77Z" fill="#282f33"/>
      <path id="Path_3096" data-name="Path 3096" d="M318.292,399.123a4.073,4.073,0,0,1-1.41-.255A4.036,4.036,0,0,1,319.7,391.3h0a4.038,4.038,0,0,1-1.4,7.82Zm0-6.212a2.175,2.175,0,1,0,.756.137h0A2.159,2.159,0,0,0,318.292,392.911Z" fill="#282f33"/>
      <path id="Path_3097" data-name="Path 3097" d="M325.7,376.765a3.486,3.486,0,1,1-4.483,2.051A3.486,3.486,0,0,1,325.7,376.765Z" fill="#d6a154"/>
      <path id="Path_3098" data-name="Path 3098" d="M331.327,358.67a2.65,2.65,0,1,1-3.407,1.559A2.65,2.65,0,0,1,331.327,358.67Z" fill="#282f33"/>
      <g id="Group_40484" data-name="Group 40484">
        <path id="Path_3099" data-name="Path 3099" d="M353.6,313.517l-2.547,3.749-4.533.027,2.779,3.581-1.375,4.32,4.265-1.537,3.683,2.642-.143-4.53,3.651-2.686-4.353-1.264Z" fill="#d6a154"/>
        <path id="Path_3100" data-name="Path 3100" d="M356.861,328.156l-4.819-3.457-5.579,2.01,1.8-5.651-3.635-4.684,5.93-.036,3.333-4.9,1.866,5.629,5.694,1.653-4.776,3.515Zm-4.529-5.541,2.549,1.828-.1-3.134,2.526-1.858-3.012-.875-.986-2.975-1.763,2.593-3.135.018,1.922,2.478-.951,2.987Z" fill="#282f33"/>
      </g>
      <path id="Path_3101" data-name="Path 3101" d="M363.892,371.225c-4.1-18.859,10.918-30.685,11.07-30.8L376.1,341.9c-.143.11-14.236,11.246-10.387,28.93Z" fill="#282f33"/>
      <path id="Path_3102" data-name="Path 3102" d="M358.018,363.554c-4.831-7.892-1.867-25.017,9.333-36.123l1.311,1.322c-11.307,11.212-12.916,27.524-9.057,33.828Z" fill="#d6a154"/>
      <path id="Path_3103" data-name="Path 3103" d="M368.052,339.649l-1.391-1.237a37.123,37.123,0,0,1,8.647-7.068l.96,1.6A35.338,35.338,0,0,0,368.052,339.649Z" fill="#282f33"/>
      <path id="Path_3104" data-name="Path 3104" d="M346.9,355.73c-9.443-7.363-15.689-21.682-14.526-33.309l1.853.186c-1.105,11.044,4.836,24.652,13.818,31.654Z" fill="#d6a154"/>
      <path id="Path_3105" data-name="Path 3105" d="M349.717,351.1c-4.052-6.346-4.746-16.148-1.614-22.8l1.684.793c-2.882,6.121-2.237,15.149,1.5,21Z" fill="#282f33"/>
      <path id="Path_3106" data-name="Path 3106" d="M322.034,332.668a4.01,4.01,0,0,1-2.324-.739h0a4.043,4.043,0,1,1,2.325.739Zm-1.248-2.259a2.174,2.174,0,1,0-.519-3.03,2.177,2.177,0,0,0,.519,3.03Z" fill="#282f33"/>
      <path id="Path_3107" data-name="Path 3107" d="M373.508,356.173a3.487,3.487,0,1,0,1.147-4.8A3.485,3.485,0,0,0,373.508,356.173Z" fill="#d6a154"/>
      <path id="Path_3108" data-name="Path 3108" d="M332.824,315.783a2.65,2.65,0,1,0,.872-3.645A2.65,2.65,0,0,0,332.824,315.783Z" fill="#282f33"/>
    </g>
    <g id="Group_40489" data-name="Group 40489">
      <g id="Group_40486" data-name="Group 40486">
        <path id="Path_3109" data-name="Path 3109" d="M393.875,368.608l5.34,10.463,2.484,4.883,2.105,4.133,2.492,4.875,2.1,4.125,2.492,4.876,2.105,4.117,2.484,4.883,2.105,4.117.008.008,2.476,4.876,2.105,4.117,2.484,4.868.008.008,2.337,4.6a5.258,5.258,0,0,1-7.073,7.073l-8.683-4.427-5.912-3.018-.008-.008-5-2.554-5.928-3.018-5-2.554-.008-.008-5.92-3.01-.008-.008-5-2.554-5.928-3.018-5.007-2.562L361.6,410.87l-5.007-2.562-.48-.248-1.122-.565Z" fill="#d6a154"/>
        <path id="Path_3110" data-name="Path 3110" d="M422.347,442.151a6.243,6.243,0,0,1-2.845-.7L354.57,408.328l-.24-1.49,38.887-38.888,1.488.236,33.123,64.946a6.212,6.212,0,0,1-5.481,9.019Zm-16.585-9.794,14.585,7.439a4.327,4.327,0,0,0,5.821-5.821l-32.54-63.8-37.071,37.072Z" fill="#282f33"/>
      </g>
      <g id="Group_40487" data-name="Group 40487">
        <rect id="Rectangle_10196" data-name="Rectangle 10196" width="1.863" height="12.951" transform="translate(412.616 397.962) rotate(-27.083)" fill="#282f33"/>
      </g>
      <g id="Group_40488" data-name="Group 40488">
        <rect id="Rectangle_10197" data-name="Rectangle 10197" width="1.863" height="5.821" transform="translate(419.958 412.394) rotate(-27.078)" fill="#282f33"/>
      </g>
      <path id="Path_3111" data-name="Path 3111" d="M394.527,367.951c-.507-.508-2.055-2.053-9.452,3.013a112.213,112.213,0,0,0-14.947,12.794c-6.953,6.953-19.2,21-15.806,24.4a2.186,2.186,0,0,0,1.616.584c4.995,0,16.649-10.257,22.781-16.39A112.151,112.151,0,0,0,391.513,377.4C396.581,370,395.036,368.458,394.527,367.951Z" fill="#282f33"/>
      <rect id="Rectangle_10198" data-name="Rectangle 10198" width="17.183" height="1.862" transform="translate(415.474 441.233) rotate(-45)" fill="#282f33"/>
      <path id="Path_3112" data-name="Path 3112" d="M403.8,388.087l2.492,4.875-38.772,20.926L361.6,410.87Z" fill="#282f33"/>
      <path id="Path_3113" data-name="Path 3113" d="M399.215,379.071l2.484,4.883-45.11,24.355-.271.147-.209-.395-.6-1.091,9.341-9.341Z" fill="#282f33"/>
      <path id="Path_3114" data-name="Path 3114" d="M408.393,397.087l2.492,4.876-32.426,17.5-5.928-3.018Z" fill="#282f33"/>
      <path id="Path_3115" data-name="Path 3115" d="M412.99,406.08l2.484,4.883-26.08,14.085-.008-.008-5.92-3.01Z" fill="#282f33"/>
      <path id="Path_3116" data-name="Path 3116" d="M417.579,415.08l.008.008,2.476,4.875L400.321,430.62l-5.928-3.018Z" fill="#282f33"/>
      <path id="Path_3117" data-name="Path 3117" d="M422.168,424.081l2.484,4.867L411.241,436.2l-5.913-3.019Z" fill="#282f33"/>
    </g>
  </g>
</svg>
